# xmcd CD database file
#
# Track frame offsets:
#	150
#	15147
#	42517
#	63536
#	86976
#	101782
#	111821
#	148582
#	157197
#	171712
#	201984
#	207964
#
# Disc length: 2988 seconds
#
# Revision: 1
# Processed by: cddbd v1.5.2PL0 Copyright (c) Steve Scherf et al.
# Submitted via: CDex 1.70beta2
#
DISCID=b50baa0c
DTITLE=Duo Peylet-Cuniot - Klezmer - l'amour des niguns
DYEAR=2000
DGENRE=Jazz
TTITLE0=Chava
TTITLE1=Doïna
TTITLE2=Wedding waltz
TTITLE3=Chassidic dance
TTITLE4=Der alef-beyz
TTITLE5=Zog nicht kein moll
TTITLE6=Odessa bulgar
TTITLE7=Boublichki
TTITLE8=Tief in waldele
TTITLE9=Impro-intro. Nigun pour marin
TTITLE10=Mir leben eybik
TTITLE11=Bay mir bist du shein
EXTD=YEAR: 2000
EXTT0=
EXTT1=
EXTT2=
EXTT3=
EXTT4=
EXTT5=
EXTT6=
EXTT7=
EXTT8=
EXTT9=
EXTT10=
EXTT11=
PLAYORDER=
